<svg width="160" height="66" viewBox="0 0 160 66" fill="none" xmlns="http://www.w3.org/2000/svg">
<path fill-rule="evenodd" clip-rule="evenodd" d="M48.031 23.7985C51.682 27.7725 59.647 24.1735 57.062 18.8765C55.336 15.3205 52.75 16.1455 50.904 17.0565C47.208 18.8355 46.509 22.1035 48.031 23.7985ZM42.105 21.0175C44.481 25.8835 37.168 29.1885 33.813 25.5385C32.415 23.9835 33.058 20.9785 36.449 19.3455C38.146 18.5095 40.522 17.7495 42.105 21.0175ZM157.936 49.3895C156.715 49.5486 155.442 49.658 154.221 49.7629L154.179 49.7665V49.8225C151.764 67.1865 127.991 70.0535 127.4 56.4215C127.131 50.2545 138.993 48.4715 150.798 47.3335C151.007 41.9267 147.233 43.1389 142.648 44.6114C137.829 46.1591 132.115 47.9945 129.19 42.7325C124.171 33.7075 143.822 24.7945 145.918 26.6305C152.271 32.1921 149.4 33.2218 144.727 34.8979L144.539 34.9655C135.049 38.3755 138.748 39.0725 140.028 38.6915C147.597 36.4385 154.394 37.6515 154.34 47.0085C154.955 46.9574 155.557 46.9179 156.154 46.8789L156.154 46.8789C156.807 46.8361 157.452 46.7939 158.097 46.7375C160.403 46.5225 160.564 49.1725 157.936 49.3895ZM150.422 50.1455C141.298 51.1735 133.409 52.5815 134.269 55.5005C135.985 61.0735 147.846 62.3185 150.422 50.1455ZM117.79 33.2455C116.975 38.8955 116.996 44.8965 117.678 44.9335C118.012 44.9525 119.982 44.5875 120.617 43.4265C121.226 42.3088 121.794 40.7698 122.388 39.1565L122.388 39.1564L122.388 39.1563L122.388 39.1563L122.388 39.1562L122.388 39.1561L122.388 39.156C123.586 35.9062 124.895 32.3552 126.883 31.3395C129.725 29.8885 118.795 26.2945 117.79 33.2455ZM28.883 61.6815C20.964 67.0195 14.664 65.8405 16.671 50.8335C18.121 39.9295 15.723 39.3125 13.549 41.3915C10.704 44.0885 8.921 51.1145 8.865 57.8035C9.12323 59.4106 9.45828 61.0044 9.869 62.5795C10.203 64.2095 4.962 65.8945 1.895 63.5905C0.837 62.8055 0 54.8805 0 44.1465C0 35.3225 1.171 29.2515 2.23 28.9715C10.259 26.7805 11.542 30.3195 9.813 36.9525C9.12537 39.5498 8.65871 42.2005 8.418 44.8765C10.091 40.2125 12.489 36.3915 15.221 34.7035C22.637 30.0395 28.826 32.2305 27.655 41.5045C25.648 58.0845 25.481 60.3315 27.265 59.0395C29.496 57.4655 30.945 60.2775 28.883 61.6815ZM41.766 64.1575C47.176 64.7765 52.807 63.0895 54.982 59.6055C56.821 56.6825 55.316 55.6705 53.197 58.0305C48.737 63.1465 44.109 60.8415 42.158 55.6705L42.66 55.5025C52.082 51.7365 57.992 41.5085 54.257 35.7195C49.126 27.7385 33.069 34.8755 31.061 46.0605C29.221 56.4015 34.016 63.3145 41.766 64.1575ZM41.377 52.1875C47.232 48.0285 49.183 38.8675 47.566 36.2825C45.838 33.5855 42.492 37.7995 41.321 48.0285C41.21 49.4895 41.21 50.8935 41.377 52.1875ZM77.125 50.0665C79.188 49.3915 81.494 47.5145 83.091 45.0075C83.538 44.3045 83.914 43.6725 84.43 42.0275C84.3675 42.2266 84.3915 42.1358 84.4509 41.9108C84.5588 41.5017 84.7839 40.649 84.82 40.2865C84.82 40.2305 84.876 39.9475 84.932 39.8375C86.157 32.9805 81.921 29.1015 76.065 32.0245C72.776 33.6535 68.706 39.8375 66.253 46.5255C66.866 42.9275 67.925 39.4995 69.096 36.1265C71.103 30.1695 67.368 27.1345 60.956 28.8775C59.896 29.1585 57.945 36.9705 57.945 45.7945C57.945 56.5285 58.503 62.7105 59.562 63.4985C62.628 65.8585 68.092 64.1165 67.535 62.5425C67.3189 61.9446 67.1554 61.3439 66.9926 60.7458L66.977 60.6885C66.977 60.5195 66.977 60.3505 66.922 60.1825C65.861 53.2115 69.933 43.5475 73.278 40.9615C74.17 40.2305 75.396 40.7365 75.564 42.6475C72.832 43.9965 71.94 46.3575 71.94 47.3685C71.94 50.1225 74.727 50.7965 77.125 50.0665Z" fill="black"/>
<path fill-rule="evenodd" clip-rule="evenodd" d="M113.207 26.1764C112.726 28.6693 112.354 31.182 112.092 33.7074C111.033 43.7674 111.48 52.7034 112.705 56.6934C113.431 58.8304 116.162 61.6394 118.783 58.7164C121.626 55.5134 124.75 57.3674 120.957 61.1324C118.617 63.4374 114.268 65.0104 109.918 64.5604C106.795 64.1674 104.9 62.1454 103.784 59.0554C103.34 59.9534 102.837 60.7404 102.224 61.3574C100.105 63.5504 97.5389 64.7874 94.2499 64.4494C87.6129 63.7194 83.7119 56.5264 85.5509 46.2964C87.5029 35.5054 96.87 31.5714 102.279 34.4394C102.391 33.0904 102.502 31.7404 102.614 30.3354C102.641 30.1949 102.655 30.0544 102.669 29.9139C102.683 29.7734 102.696 29.6329 102.724 29.4924C101.079 29.8542 99.424 30.1729 97.7619 30.4484C73.7869 34.4384 82.0399 14.8794 87.8939 9.76543C94.53 4.03243 95.2539 7.91043 93.1909 9.20343C89.5109 11.5634 87.8939 25.1084 98.4319 25.1084C100.161 25.1084 101.778 24.9964 103.394 24.8274C106.685 6.50543 116.665 -2.37557 124.75 0.547433C133.726 3.80743 132.779 18.0824 113.207 26.1764ZM102.279 50.5694C102.055 47.0274 102.055 43.0374 102.112 38.9334C102.112 38.673 102.127 38.4129 102.141 38.1603C102.155 37.9222 102.168 37.6908 102.168 37.4724C98.8219 35.9544 95.5329 41.1254 94.6949 48.2644C93.7489 56.6374 97.4829 61.0774 99.6029 59.0554C101.22 57.4244 102.056 52.2524 102.279 50.5694ZM126.365 7.40443C124.581 4.76243 118.058 7.96643 114.267 21.7364C123.802 17.1824 127.593 9.31443 126.365 7.40443Z" fill="black"/>
</svg>
